<svg width="1312" height="1512" viewBox="0 0 1312 1512" fill="none" xmlns="http://www.w3.org/2000/svg">
<g clip-path="url(#clip0_1877_37)">
<rect width="1312" height="1512" fill="white"/>
<g opacity="0.5">
<mask id="mask0_1877_37" style="mask-type:alpha" maskUnits="userSpaceOnUse" x="0" y="-47" width="1594" height="1594">
<path fill-rule="evenodd" clip-rule="evenodd" d="M797 1105.99C993.61 1105.99 1152.99 946.61 1152.99 750C1152.99 553.39 993.61 394.007 797 394.007C600.39 394.007 441.007 553.39 441.007 750C441.007 946.61 600.39 1105.99 797 1105.99ZM797 1066.92C972.031 1066.92 1113.92 925.031 1113.92 750C1113.92 574.969 972.031 433.079 797 433.079C621.97 433.079 480.079 574.969 480.079 750C480.079 925.031 621.97 1066.92 797 1066.92Z" fill="#DADADA" fill-opacity="0.4"/>
<path fill-rule="evenodd" clip-rule="evenodd" d="M797 1239.89C1067.56 1239.89 1286.89 1020.56 1286.89 750C1286.89 479.442 1067.56 260.111 797 260.111C526.441 260.111 307.11 479.442 307.11 750C307.11 1020.56 526.441 1239.89 797 1239.89ZM797 1186.12C1037.86 1186.12 1233.12 990.864 1233.12 750.001C1233.12 509.138 1037.86 313.88 797 313.88C556.137 313.88 360.879 509.138 360.879 750.001C360.879 990.864 556.137 1186.12 797 1186.12Z" fill="#DADADA" fill-opacity="0.4"/>
<path fill-rule="evenodd" clip-rule="evenodd" d="M797 1378.04C1143.85 1378.04 1425.04 1096.85 1425.04 750C1425.04 403.145 1143.85 121.964 797 121.964C450.145 121.964 168.964 403.145 168.964 750C168.964 1096.85 450.145 1378.04 797 1378.04ZM797 1309.11C1105.79 1309.11 1356.11 1058.79 1356.11 750C1356.11 441.215 1105.79 190.895 797 190.895C488.215 190.895 237.895 441.215 237.895 750C237.895 1058.79 488.215 1309.11 797 1309.11Z" fill="#DADADA" fill-opacity="0.4"/>
<path fill-rule="evenodd" clip-rule="evenodd" d="M797 1547C1237.17 1547 1594 1190.17 1594 750C1594 309.829 1237.17 -47 797 -47C356.829 -47 0 309.829 0 750C0 1190.17 356.829 1547 797 1547ZM797 1459.52C1188.86 1459.52 1506.52 1141.86 1506.52 750C1506.52 358.141 1188.86 40.4759 797 40.4759C405.141 40.4759 87.4756 358.141 87.4756 750C87.4756 1141.86 405.141 1459.52 797 1459.52Z" fill="#DADADA" fill-opacity="0.4"/>
</mask>
<g mask="url(#mask0_1877_37)">
<rect x="-169.598" y="-3.76904" width="1477.61" height="1516.41" rx="49" fill="#D9D9D9"/>
</g>
</g>
</g>
<defs>
<clipPath id="clip0_1877_37">
<rect width="1312" height="1512" fill="white"/>
</clipPath>
</defs>
</svg>
