<svg width="1468" height="1466" viewBox="0 0 1468 1466" fill="none" xmlns="http://www.w3.org/2000/svg">
<g opacity="0.5">
<mask id="mask0_13_5397" style="mask-type:alpha" maskUnits="userSpaceOnUse" x="0" y="-318" width="1974" height="1974">
<path fill-rule="evenodd" clip-rule="evenodd" d="M987 1109.86C1230.48 1109.86 1427.86 912.48 1427.86 669C1427.86 425.52 1230.48 228.14 987 228.14C743.52 228.14 546.14 425.52 546.14 669C546.14 912.48 743.52 1109.86 987 1109.86ZM987 1061.47C1203.76 1061.47 1379.47 885.757 1379.47 669C1379.47 452.243 1203.76 276.527 987 276.527C770.243 276.527 594.527 452.243 594.527 669C594.527 885.757 770.243 1061.47 987 1061.47Z" fill="#DADADA" fill-opacity="0.4"/>
<path fill-rule="evenodd" clip-rule="evenodd" d="M987 1275.68C1322.06 1275.68 1593.68 1004.06 1593.68 669C1593.68 333.942 1322.06 62.324 987 62.324C651.942 62.324 380.324 333.942 380.324 669C380.324 1004.06 651.942 1275.68 987 1275.68ZM987 1209.09C1285.28 1209.09 1527.09 967.284 1527.09 669C1527.09 370.717 1285.28 128.911 987 128.911C688.717 128.911 446.91 370.717 446.91 669C446.91 967.284 688.717 1209.09 987 1209.09Z" fill="#DADADA" fill-opacity="0.4"/>
<path fill-rule="evenodd" clip-rule="evenodd" d="M987 1446.76C1416.54 1446.76 1764.76 1098.54 1764.76 669C1764.76 239.457 1416.54 -108.756 987 -108.756C557.457 -108.756 209.244 239.457 209.244 669C209.244 1098.54 557.457 1446.76 987 1446.76ZM987 1361.39C1369.4 1361.39 1679.39 1051.4 1679.39 669C1679.39 286.602 1369.4 -23.3925 987 -23.3925C604.602 -23.3925 294.607 286.602 294.607 669C294.607 1051.4 604.602 1361.39 987 1361.39Z" fill="#DADADA" fill-opacity="0.4"/>
<path fill-rule="evenodd" clip-rule="evenodd" d="M987 1656C1532.11 1656 1974 1214.11 1974 669C1974 123.895 1532.11 -318 987 -318C441.895 -318 0 123.895 0 669C0 1214.11 441.895 1656 987 1656ZM987 1547.67C1472.28 1547.67 1865.67 1154.28 1865.67 669C1865.67 183.724 1472.28 -209.67 987 -209.67C501.724 -209.67 108.329 183.724 108.329 669C108.329 1154.28 501.724 1547.67 987 1547.67Z" fill="#DADADA" fill-opacity="0.4"/>
</mask>
<g mask="url(#mask0_13_5397)">
<rect x="-210.029" y="-264.463" width="1829.86" height="1877.91" rx="49" fill="#D9D9D9"/>
</g>
</g>
</svg>
