<svg width="580" height="449" viewBox="0 0 580 449" fill="none" xmlns="http://www.w3.org/2000/svg">
<g clip-path="url(#clip0_1877_9)">
<rect width="580" height="449" fill="white"/>
<g style="mix-blend-mode:multiply" opacity="0.1">
<path d="M73.1908 2.68987L62.1962 42.7069L51.2825 2.68987L39.722 2.77072L28.8891 42.7069L17.9754 2.68987H6.41487L23.4726 60.8965H34.3055L45.5426 21.607L56.8606 60.8965H67.6935L84.7513 2.68987H73.1908ZM115.421 62.1091C123.505 62.1091 131.509 59.0371 136.844 52.5697C141.614 46.749 143.473 39.8774 143.635 31.7932C143.473 24.0323 141.776 16.9182 136.844 10.9358C131.67 4.63009 123.829 1.47723 115.421 1.47723C107.013 1.47723 99.0907 4.54925 93.9976 10.9358C89.3088 16.5948 87.2069 24.0323 87.2069 31.7932C87.2069 39.5541 89.3088 46.9107 93.9976 52.5697C99.0099 58.8754 107.094 62.1091 115.421 62.1091ZM115.421 51.7613C110.409 51.6804 105.558 49.8211 102.729 45.9406C99.7374 42.0602 98.8482 36.8863 98.7673 31.7932C98.6865 26.7001 99.7374 21.4453 102.729 17.6457C105.558 13.7653 110.409 11.7442 115.421 11.8251C120.433 11.9059 125.203 13.7653 128.113 17.6457C131.023 21.4453 131.994 26.7001 131.994 31.7932C131.994 36.8863 131.023 42.0602 128.113 45.9406C125.203 49.8211 120.433 51.8421 115.421 51.7613ZM185.36 60.8965H197.81L187.138 38.9882C188.836 38.1797 190.372 37.0479 191.746 35.6736C194.98 32.4399 197.082 27.4277 197.001 21.9304C196.92 15.8672 195.303 11.6634 191.1 7.62127C187.785 4.38757 183.985 2.68987 177.114 2.68987H152.538V60.8965H163.532V41.0901H175.74L185.36 60.8965ZM163.532 13.0377H177.437C180.428 13.0377 182.449 13.7653 183.905 15.463C185.36 17.2415 185.845 19.8285 185.845 21.9304C185.845 23.8706 185.279 26.215 183.985 27.7511C182.288 29.853 179.62 30.8231 177.437 30.8231H163.532V13.0377ZM216.863 2.68987V50.6295H241.924V60.8965H205.868V2.68987H216.863ZM296.488 31.7932C296.488 39.6349 294.063 47.6383 288.97 52.9739C284.038 58.3904 276.843 60.8965 269.244 60.8965H248.791V2.68987H269.325C277.328 2.68987 284.038 5.35768 288.727 10.5316C293.982 16.0289 296.488 23.7898 296.488 31.7932ZM284.847 31.7932C284.847 26.4576 283.715 21.4453 280.562 17.7266C277.409 14.2504 273.852 13.2802 269.325 13.0377L259.947 13.1186V50.5486L269.244 50.6295C273.609 50.4678 277.571 49.1743 280.4 46.1023C283.715 42.2219 284.847 37.4522 284.847 31.7932Z" fill="black"/>
<path d="M79.7773 124.455C79.6519 115.047 77.1429 108.523 70.6197 102.251C65.4763 97.233 59.5803 94.5986 48.9173 94.5986H10.7813V184.921H27.8421V154.186H48.9173C58.2004 154.186 65.8527 151.677 71.6233 145.781C76.6411 140.763 79.9028 132.985 79.7773 124.455ZM59.5803 133.487C56.9459 136.749 52.8062 138.254 49.4191 138.254H27.8421V110.656H49.4191C54.0606 110.656 57.1968 111.785 59.4549 114.419C61.7129 117.179 62.4656 121.193 62.4656 124.455C62.4656 127.466 61.5875 131.104 59.5803 133.487ZM143.214 184.921H162.533L145.974 150.924C148.609 149.67 150.992 147.914 153.125 145.781C158.143 140.763 161.404 132.985 161.279 124.455C161.153 115.047 158.644 108.523 152.121 102.251C146.978 97.233 141.082 94.5986 130.419 94.5986H92.2828V184.921H109.344V154.186H128.286L143.214 184.921ZM109.344 110.656H130.921C135.562 110.656 138.698 111.785 140.956 114.419C143.214 117.179 143.967 121.193 143.967 124.455C143.967 127.466 143.089 131.104 141.082 133.487C138.447 136.749 134.308 138.254 130.921 138.254H109.344V110.656ZM232.745 110.53V94.5986H173.784V184.921H232.745V168.989H190.845V145.781H225.218V129.849H190.845V110.53H232.745ZM340.668 94.5986H325.364L295.507 154.562L265.651 94.5986H250.346V184.921H266.278V131.104L292.497 184.921H298.518L324.737 130.978V184.921H340.668V94.5986ZM359.446 94.5986V184.921H376.507V94.5986H359.446ZM468.868 94.5986H451.556V150.799C451.556 155.441 450.427 159.455 447.667 163.093C444.029 167.985 438.133 170.745 432.237 170.745C426.216 170.745 419.943 168.111 416.556 163.218C414.047 159.58 412.667 155.315 412.667 150.799V94.5986L395.356 94.7241V151.05C395.356 159.079 397.99 167.86 403.008 174.258C409.782 182.788 420.947 186.802 432.237 186.802C443.527 186.802 454.441 182.913 461.215 174.258C466.484 167.734 468.868 159.455 468.868 151.05V94.5986ZM576.705 94.5986H561.401L531.544 154.562L501.688 94.5986H486.383V184.921H502.315V131.104L528.534 184.921H534.555L560.774 130.978V184.921H576.705V94.5986Z" fill="black"/>
<path d="M360.934 39.1936C360.368 40.9721 359.479 42.589 358.428 44.0441C355.518 47.9246 351.557 49.9456 346.544 49.8648C341.532 49.784 336.682 47.9246 333.852 44.0441C330.861 40.1637 329.972 34.9898 329.891 29.8967C329.81 24.8036 330.861 19.5489 333.852 15.7493C336.682 11.8688 341.532 9.84775 346.544 9.9286C351.557 10.0094 355.518 11.8688 358.428 15.7493C359.641 17.2853 360.53 19.1446 361.096 21.0849L372.091 19.5489C370.797 13.9707 368.291 9.03933 363.036 4.83552C358.267 0.955075 352.527 -0.41925 345.817 -0.41925C337.409 -0.41925 330.133 2.65276 324.959 8.95848C320.19 14.6983 318.33 21.8933 318.33 29.8967C318.33 37.5767 320.351 44.61 325.04 50.6732C329.81 56.8173 337.248 60.2126 345.817 60.2126C352.284 60.2126 358.186 58.9192 363.117 55.0387C367.968 51.1583 370.231 46.7119 371.686 41.8614L360.934 39.1936ZM391.978 0.793388V48.733H417.039V59H380.983V0.793388H391.978ZM460.527 59H471.845L454.06 0.793388H437.649L419.864 59H431.181L434.9 46.8736H456.809L460.527 59ZM437.972 36.6066L445.733 11.1412L453.575 36.6066H437.972ZM522.432 15.5876C520.169 9.68607 516.288 5.07804 511.357 2.41024C507.477 0.308335 503.111 -0.338404 499.15 -0.41925C495.269 -0.41925 491.066 -0.0958804 486.862 1.84434C481.526 4.26962 477.403 9.76691 477.403 16.1535C477.403 20.1956 478.939 24.5611 482.415 27.4714C485.245 29.9775 489.206 31.6752 493.572 32.8879L504.405 36.0407C506.668 36.6875 508.285 37.4959 509.578 38.6277C510.791 39.6786 511.357 41.1338 511.357 42.6698C511.357 44.2867 510.872 46.0652 509.013 47.4395C506.911 49.0564 503.03 49.9456 499.958 49.9456C496.078 49.9456 491.551 48.4905 489.206 45.2568C487.751 43.4782 486.781 40.8913 486.296 38.0618L475.14 41.053C476.029 44.8526 477.565 48.8947 480.394 52.3709C485.164 58.1916 491.793 60.2126 499.554 60.2126C505.698 60.2126 511.034 59.4851 515.48 56.4939C520.088 53.4219 522.998 48.0863 522.998 42.9932C522.998 38.2235 521.058 33.9388 517.582 30.6243C514.995 28.199 512.004 26.663 506.83 25.127L496.725 22.2167C493.814 21.3274 491.146 20.2764 490.095 19.1446C489.368 18.4171 488.964 17.4469 488.964 16.396C488.964 14.6175 489.934 12.7581 491.955 11.5454C493.653 10.4945 496.239 9.84775 498.988 9.9286C501.656 9.9286 504 10.8987 505.86 12.0305C508.608 13.6473 509.821 15.6684 511.276 18.5787L522.432 15.5876ZM577.986 15.5876C575.723 9.68607 571.842 5.07804 566.911 2.41024C563.031 0.308335 558.665 -0.338404 554.704 -0.41925C550.823 -0.41925 546.62 -0.0958804 542.416 1.84434C537.08 4.26962 532.957 9.76691 532.957 16.1535C532.957 20.1956 534.493 24.5611 537.969 27.4714C540.799 29.9775 544.76 31.6752 549.126 32.8879L559.959 36.0407C562.222 36.6875 563.839 37.4959 565.132 38.6277C566.345 39.6786 566.911 41.1338 566.911 42.6698C566.911 44.2867 566.426 46.0652 564.567 47.4395C562.465 49.0564 558.584 49.9456 555.512 49.9456C551.632 49.9456 547.105 48.4905 544.76 45.2568C543.305 43.4782 542.335 40.8913 541.85 38.0618L530.694 41.053C531.583 44.8526 533.119 48.8947 535.948 52.3709C540.718 58.1916 547.347 60.2126 555.108 60.2126C561.252 60.2126 566.588 59.4851 571.034 56.4939C575.642 53.4219 578.552 48.0863 578.552 42.9932C578.552 38.2235 576.612 33.9388 573.136 30.6243C570.549 28.199 567.558 26.663 562.384 25.127L552.279 22.2167C549.368 21.3274 546.7 20.2764 545.649 19.1446C544.922 18.4171 544.518 17.4469 544.518 16.396C544.518 14.6175 545.488 12.7581 547.509 11.5454C549.206 10.4945 551.793 9.84775 554.542 9.9286C557.21 9.9286 559.554 10.8987 561.414 12.0305C564.162 13.6473 565.375 15.6684 566.83 18.5787L577.986 15.5876Z" fill="black"/>
<path d="M64.1749 452.373C48.434 452.373 35.9724 449.094 26.7902 442.535C17.7954 435.976 11.3303 426.794 7.39509 414.988C3.64724 402.995 1.77332 389.222 1.77332 373.668V297.212C1.77332 281.097 3.83464 267.136 7.95726 255.33C12.0799 243.525 19.1071 234.436 29.0389 228.065C39.1581 221.506 52.8377 218.227 70.0778 218.227C86.9431 218.227 100.154 221.037 109.711 226.659C119.456 232.281 126.389 240.058 130.512 249.99C134.634 259.921 136.696 271.54 136.696 284.844V299.461H87.5052V280.909C87.5052 276.037 87.1304 271.54 86.3809 267.417C85.8187 263.294 84.3196 260.015 81.8835 257.579C79.6348 254.955 75.8869 253.644 70.6399 253.644C65.2056 253.644 61.2703 255.143 58.8342 258.141C56.3981 260.952 54.8053 264.512 54.0557 268.822C53.4936 273.132 53.2125 277.63 53.2125 282.315V387.723C53.2125 392.782 53.6809 397.561 54.6179 402.058C55.7423 406.368 57.6162 409.929 60.2397 412.74C63.0506 415.363 66.9858 416.675 72.0454 416.675C77.2924 416.675 81.3213 415.269 84.1322 412.459C86.943 409.648 88.9107 405.994 90.035 401.496C91.1594 396.999 91.7215 392.22 91.7215 387.161V360.457H71.2021V330.943H136.977V449H103.808L100.997 430.167C97.9992 436.538 93.5955 441.879 87.7863 446.189C81.9772 450.312 74.1067 452.373 64.1749 452.373ZM193.021 449V355.96L149.733 221.319H197.237L218.881 293.277L238.276 221.319H283.812L241.368 355.96V449H193.021ZM299.933 449L303.868 221.319H357.837L382.854 353.711L409.839 221.319H461.84L465.775 449H430.077L425.861 297.493L399.438 449H367.675L339.567 296.369L336.194 449H299.933ZM504.875 301.148L501.502 286.812C508.81 286.625 513.495 284.189 515.556 279.504C517.618 274.819 518.648 268.822 518.648 261.514H499.253V221.319H539.449C539.449 226.94 539.355 232.375 539.168 237.622C539.168 242.869 539.074 247.835 538.887 252.519C538.325 268.635 535.701 280.722 531.016 288.78C526.519 296.838 517.805 300.96 504.875 301.148Z" fill="black"/>
<path d="M578.438 335.687C576.469 330.437 572.531 325.844 567.656 323.5C564.188 321.719 560.344 320.969 556.875 320.969C553.406 320.969 549.75 321.156 545.813 322.844C540.563 325.094 536.625 330.062 536.625 336.437C536.625 338.594 537.375 342.25 539.156 344.5C541.031 346.937 544.406 348.812 547.313 350.031C548.906 350.687 550.5 351.062 560.156 353.781C563.719 354.812 567.469 355.469 567.469 358.562C567.469 359.969 566.813 360.812 565.5 361.75C564 362.875 560.531 363.437 558.656 363.437C555.188 363.437 551.719 362.594 549.188 359.969C547.875 358.562 546.75 356.031 546.188 353.781L534.75 356.687C535.5 360.156 536.719 363.625 540.094 367.562C544.594 372.812 550.969 374.406 558.375 374.406C563.25 374.406 567.375 373.75 571.688 371.031C576.094 368.406 578.906 363.531 578.906 358.375C578.906 350.031 572.531 344.781 562.969 342.156L553.594 339.531C550.5 338.687 548.063 338.125 548.063 335.969C548.063 333.437 552.188 331.75 556.125 331.937C560.719 332.125 564.656 333.906 566.531 338.687L578.438 335.687Z" fill="black"/>
</g>
</g>
<defs>
<clipPath id="clip0_1877_9">
<rect width="580" height="449" fill="white"/>
</clipPath>
</defs>
</svg>
