<svg width="1502" height="1117" viewBox="0 0 1502 1117" fill="none" xmlns="http://www.w3.org/2000/svg">
<g opacity="0.5">
<mask id="mask0_876_536" style="mask-type:alpha" maskUnits="userSpaceOnUse" x="0" y="-113" width="1594" height="1594">
<path fill-rule="evenodd" clip-rule="evenodd" d="M797 1039.99C993.61 1039.99 1152.99 880.61 1152.99 684C1152.99 487.39 993.61 328.007 797 328.007C600.39 328.007 441.007 487.39 441.007 684C441.007 880.61 600.39 1039.99 797 1039.99ZM797 1000.92C972.031 1000.92 1113.92 859.031 1113.92 684C1113.92 508.969 972.031 367.079 797 367.079C621.97 367.079 480.079 508.969 480.079 684C480.079 859.031 621.97 1000.92 797 1000.92Z" fill="#DADADA" fill-opacity="0.4"/>
<path fill-rule="evenodd" clip-rule="evenodd" d="M797 1173.89C1067.56 1173.89 1286.89 954.559 1286.89 684C1286.89 413.442 1067.56 194.111 797 194.111C526.441 194.111 307.11 413.442 307.11 684C307.11 954.559 526.441 1173.89 797 1173.89ZM797 1120.12C1037.86 1120.12 1233.12 924.864 1233.12 684.001C1233.12 443.138 1037.86 247.88 797 247.88C556.137 247.88 360.879 443.138 360.879 684.001C360.879 924.864 556.137 1120.12 797 1120.12Z" fill="#DADADA" fill-opacity="0.4"/>
<path fill-rule="evenodd" clip-rule="evenodd" d="M797 1312.04C1143.85 1312.04 1425.04 1030.85 1425.04 684C1425.04 337.145 1143.85 55.9639 797 55.9639C450.145 55.9639 168.964 337.145 168.964 684C168.964 1030.85 450.145 1312.04 797 1312.04ZM797 1243.11C1105.79 1243.11 1356.11 992.785 1356.11 684C1356.11 375.215 1105.79 124.895 797 124.895C488.215 124.895 237.895 375.215 237.895 684C237.895 992.785 488.215 1243.11 797 1243.11Z" fill="#DADADA" fill-opacity="0.4"/>
<path fill-rule="evenodd" clip-rule="evenodd" d="M797 1481C1237.17 1481 1594 1124.17 1594 684C1594 243.829 1237.17 -113 797 -113C356.829 -113 0 243.829 0 684C0 1124.17 356.829 1481 797 1481ZM797 1393.52C1188.86 1393.52 1506.52 1075.86 1506.52 684C1506.52 292.141 1188.86 -25.5241 797 -25.5241C405.141 -25.5241 87.4756 292.141 87.4756 684C87.4756 1075.86 405.141 1393.52 797 1393.52Z" fill="#DADADA" fill-opacity="0.4"/>
</mask>
<g mask="url(#mask0_876_536)">
<rect x="-169.598" y="-69.769" width="1477.61" height="1516.41" rx="49" fill="#D9D9D9"/>
</g>
</g>
</svg>
