<svg id="SvgjsSvg1176" width="288" height="288" xmlns="http://www.w3.org/2000/svg" version="1.1" xmlns:xlink="http://www.w3.org/1999/xlink" xmlns:svgjs="http://svgjs.com/svgjs"><defs id="SvgjsDefs1177"></defs><g id="SvgjsG1178" transform="matrix(1,0,0,1,0,0)"><svg xmlns="http://www.w3.org/2000/svg" data-name="Layer 1" viewBox="0 0 512 512" width="288" height="288"><g data-name="&amp;lt;Group&amp;gt;" fill="#ffffff" class="color000 svgShape"><g data-name="&amp;lt;Group&amp;gt;" fill="#ffffff" class="color000 svgShape"><path fill="#791061" d="M256,36.87c103.38,0,187.51,80.28,187.51,179.26,0,139.12-187.51,259-187.51,259S68.49,355.25,68.49,216.13C68.49,117.15,152.62,36.87,256,36.87Zm136.9,184.2A136.9,136.9,0,1,0,256,357.97,136.9,136.9,0,0,0,392.9,221.07Z" data-name="&amp;lt;Group&amp;gt;" class="colorfedb41 svgShape"></path><path fill="#000000" d="M354.86,210.69v14.08a15.522,15.522,0,0,1-15.52,15.52h-9.88V195.17h9.88A15.522,15.522,0,0,1,354.86,210.69Z" data-name="&amp;lt;Group&amp;gt;" class="color00efd1 svgShape"></path><path fill="#11421d" d="M256,84.17a136.9,136.9,0,1,1-136.9,136.9A136.9,136.9,0,0,1,256,84.17Zm98.86,140.6V210.69a15.522,15.522,0,0,0-15.52-15.52h-9.88v-7.34a15.53,15.53,0,0,0-15.52-15.53H297.91v32.84H214.09V172.3H198.06a15.53,15.53,0,0,0-15.52,15.53v7.34h-9.88a15.522,15.522,0,0,0-15.52,15.52v14.08a15.522,15.522,0,0,0,15.52,15.52h9.88v9.88a15.522,15.522,0,0,0,15.52,15.52h16.03V232.86h83.82V265.7h16.03a15.53,15.53,0,0,0,15.52-15.53v-9.88h9.88A15.522,15.522,0,0,0,354.86,224.77Z" data-name="&amp;lt;Group&amp;gt;" class="color00acea svgShape"></path><path fill="#000000" d="M329.46,240.29v9.88a15.53,15.53,0,0,1-15.52,15.53H297.91V172.3h16.03a15.53,15.53,0,0,1,15.52,15.53v52.46Z" data-name="&amp;lt;Group&amp;gt;" class="color00efd1 svgShape"></path><polygon fill="#000000" points="297.91 205.14 297.91 232.86 297.73 232.86 214.09 232.86 214.09 205.14 297.26 205.14 297.91 205.14" data-name="&amp;lt;Group&amp;gt;" class="color00efd1 svgShape"></polygon><path fill="#000000" d="M214.09,232.86v32.83H198.06a15.522,15.522,0,0,1-15.52-15.52V187.83a15.53,15.53,0,0,1,15.52-15.53h16.03v60.56Z" data-name="&amp;lt;Group&amp;gt;" class="color00efd1 svgShape"></path><path fill="#000000" d="M182.54,195.17v45.12h-9.88a15.522,15.522,0,0,1-15.52-15.52V210.69a15.522,15.522,0,0,1,15.52-15.52Z" data-name="&amp;lt;Group&amp;gt;" class="color00efd1 svgShape"></path></g><g data-name="&amp;lt;Group&amp;gt;" fill="#ffffff" class="color000 svgShape"><path fill="#ffffff" d="M155.138,404.834c47.119,47.6,93.523,77.473,95.476,78.721a10,10,0,0,0,10.772,0c1.953-1.248,48.357-31.117,95.476-78.721,27.832-28.117,50.049-56.577,66.035-84.587,20.313-35.594,30.613-70.624,30.613-104.117,0-104.359-88.6-189.26-197.51-189.26S58.49,111.771,58.49,216.13c0,33.493,10.3,68.523,30.613,104.117C105.089,348.257,127.306,376.717,155.138,404.834ZM256,46.87c97.879,0,177.51,75.93,177.51,169.26,0,29.918-9.381,61.553-27.883,94.026-15.074,26.458-36.171,53.486-62.706,80.333A622.2,622.2,0,0,1,256,463.1a622.136,622.136,0,0,1-86.921-72.613c-26.535-26.847-47.632-53.875-62.706-80.333-18.5-32.473-27.883-64.108-27.883-94.026C78.49,122.8,158.121,46.87,256,46.87Z" data-name="&amp;lt;Compound Path&amp;gt;" class="color083863 svgShape"></path><path fill="#ffffff" d="M256,367.97c81,0,146.9-65.9,146.9-146.9S337,74.17,256,74.17s-146.9,65.9-146.9,146.9S175,367.97,256,367.97Zm0-273.8a126.9,126.9,0,1,1-126.9,126.9A127.044,127.044,0,0,1,256,94.17Z" data-name="&amp;lt;Compound Path&amp;gt;" class="color083863 svgShape"></path><path fill="#ffffff" d="M198.06,276h16.03A10.193,10.193,0,0,0,224,265.69V243h64v22.7a10.184,10.184,0,0,0,9.91,10.3h16.03a25.742,25.742,0,0,0,25.587-25.563A25.737,25.737,0,0,0,365,224.77V210.69A25.814,25.814,0,0,0,339.34,185h-.019a25.537,25.537,0,0,0-25.381-23H297.91A10.184,10.184,0,0,0,288,172.3V195H224V172.3a10.184,10.184,0,0,0-9.91-10.3H198.06a25.537,25.537,0,0,0-25.381,23h-.019A25.814,25.814,0,0,0,147,210.69v14.08a25.741,25.741,0,0,0,25.473,25.672A25.741,25.741,0,0,0,198.06,276ZM345,210.69v14.08c0,3-3,5.449-6,5.514V205.176C342,205.241,345,207.686,345,210.69ZM308,182h5.94c3.044,0,5.06,2.781,5.06,5.83v62.34c0,3.049-2.016,5.83-5.06,5.83H308Zm-20,33v8H224v-8Zm-95-27.17c0-3.049,2.016-5.83,5.06-5.83H204v74h-5.94c-3.044,0-5.06-2.786-5.06-5.83Zm-26,36.94V210.69c0-3,3-5.449,6-5.514v25.108C170,230.219,167,227.773,167,224.77Z" data-name="&amp;lt;Compound Path&amp;gt;" class="color083863 svgShape"></path></g></g></svg></g></svg>