<svg width="37" height="21" viewBox="0 0 37 21" fill="none" xmlns="http://www.w3.org/2000/svg">
<path d="M26.0131 9.05358C21.1938 9.05358 16.4965 9.05358 11.6772 9.05358C11.6772 7.40206 11.6772 5.87758 11.6772 4.28958C11.6772 3.7179 11.6772 3.14622 11.5552 2.63806C11.3112 1.62174 10.7011 0.923017 9.66404 0.923017C8.56597 0.923017 8.01693 1.68526 7.77292 2.7651C7.71191 3.0827 7.71191 3.52734 7.71191 3.84494C7.71191 8.60894 7.71191 13.3729 7.71191 18.0734C7.71191 18.391 7.71191 18.7086 7.71191 19.0262C7.89493 20.1061 8.44396 20.9953 9.60304 20.9953C10.7011 20.9953 11.3722 20.2966 11.4942 19.2168C11.6162 18.0099 11.6162 16.803 11.6162 15.5961C11.6162 14.7704 11.6162 13.9446 11.6162 12.9918C16.3745 12.9918 21.0718 12.9918 25.9521 12.9918C25.9521 14.7069 25.9521 16.4219 25.9521 18.1369C25.9521 18.7086 25.9521 19.3438 26.1961 19.7249C26.6232 20.2966 27.3552 20.9318 27.9042 20.9318C28.5143 20.9318 29.1853 20.2331 29.6123 19.6614C29.9174 19.2803 29.8564 18.5816 29.8564 18.0734C29.8564 13.3094 29.8564 8.54542 29.8564 3.84494C29.8564 3.7179 29.8564 3.59086 29.8564 3.4003C29.7954 1.87582 29.0023 0.859497 27.9042 0.859497C26.7452 0.859497 25.9521 1.8123 25.8911 3.33678C25.8301 4.54366 25.8911 5.75054 25.8911 6.95742C26.0131 7.65614 26.0131 8.29134 26.0131 9.05358Z" fill="black"/>
<path d="M2.67773 10.9274C2.67773 12.5932 2.67773 14.323 2.67773 15.9888C2.67773 17.142 3.21985 17.9749 4.69132 17.9749C6.24023 17.9749 6.7049 17.142 6.7049 15.9888C6.7049 12.5932 6.7049 9.19752 6.7049 5.86595C6.7049 4.71271 6.16278 3.87982 4.69132 3.87982C3.14241 3.87982 2.67773 4.71271 2.67773 5.86595C2.67773 7.53173 2.67773 9.19752 2.67773 10.9274Z" fill="black"/>
<path d="M34.8953 10.9255C34.8953 9.19611 34.8953 7.46672 34.8953 5.73732C34.8953 4.64844 34.2758 3.94387 32.8818 3.87982C31.4877 3.87982 30.8682 4.64844 30.8682 5.73732C30.8682 9.19611 30.8682 12.6549 30.8682 16.1777C30.8682 17.2666 31.4877 18.0352 32.8818 17.9712C34.2758 17.9712 34.8953 17.2666 34.8953 16.1137C34.8953 14.3843 34.8953 12.6549 34.8953 10.9255Z" fill="black"/>
<path d="M0.710687 11.0227C0.710687 11.7858 0.605782 12.4852 0.710687 13.2483C0.710687 13.5026 1.23521 13.757 1.54992 13.9477C1.86464 13.6934 2.49406 13.439 2.59897 13.1847C2.70387 11.6586 2.70387 10.1325 2.59897 8.60644C2.59897 8.35209 2.07445 8.09774 1.75973 7.90698C1.44502 8.16133 0.815591 8.41568 0.710687 8.67002C0.605782 9.43307 0.710687 10.2597 0.710687 11.0227Z" fill="black"/>
<path d="M36.8858 11.0227C36.8858 10.2597 36.9383 9.43307 36.8858 8.67002C36.8858 8.41568 36.5711 8.16133 36.3613 7.90698C36.2039 8.16133 35.9417 8.41568 35.9417 8.60644C35.8892 10.1325 35.8892 11.6586 35.9417 13.1847C35.9417 13.439 36.2564 13.6934 36.4662 13.9477C36.6236 13.6934 36.8858 13.5026 36.8858 13.2483C36.9383 12.4852 36.8858 11.7858 36.8858 11.0227Z" fill="black"/>
</svg>
