<svg width="32" height="19" viewBox="0 0 32 19" fill="none" xmlns="http://www.w3.org/2000/svg">
<path d="M16.4998 15L20.4998 5.80005L15.7998 14.7C15.9998 14.7 16.2998 14.8 16.4998 15Z" fill="black"/>
<path d="M15 16.1001L14 17.9001H14.6L14.9 18.4001L15.7 16.6001H15.6C15.4 16.5001 15.1 16.4001 15 16.1001Z" fill="black"/>
<path d="M15.6998 14.7C15.1998 14.7 14.7998 15.1 14.7998 15.6C14.7998 16.1 15.1998 16.5 15.6998 16.5C16.1998 16.5 16.5998 16.1 16.5998 15.6C16.6998 15.1 16.1998 14.7 15.6998 14.7ZM15.6998 16.1C15.4998 16.1 15.2998 15.9 15.2998 15.7C15.2998 15.5 15.4998 15.3 15.6998 15.3C15.8998 15.3 16.0998 15.5 16.0998 15.7C16.1998 15.9 15.9998 16.1 15.6998 16.1Z" fill="black"/>
<path d="M13.3996 2.30005C11.2996 2.70005 9.29961 3.50005 7.59961 4.80005C7.79961 5.00005 7.89961 5.20005 8.09961 5.40005C9.69961 4.20005 11.4996 3.40005 13.4996 3.10005C13.4996 2.90005 13.3996 2.70005 13.3996 2.50005C13.3996 2.40005 13.3996 2.40005 13.3996 2.30005Z" fill="black"/>
<path d="M27.2998 8.30005C27.0998 8.50005 26.9998 8.60005 26.7998 8.80005C27.5998 10 28.0998 11.3 28.4998 12.6C28.6998 12.5 28.9998 12.5 29.1998 12.5C28.6998 11 28.0998 9.60005 27.2998 8.30005Z" fill="black"/>
<path d="M23.8996 4.80002C22.1996 3.60002 20.2996 2.70002 18.1996 2.40002V2.50002C18.1996 2.70002 18.1996 2.90002 18.0996 3.10002C19.9996 3.40002 21.7996 4.20002 23.2996 5.30002C23.4996 5.10002 23.6996 4.90002 23.8996 4.80002Z" fill="black"/>
<path d="M4.3 8.40002C3.5 9.60002 2.9 11 2.5 12.5C2.7 12.5 3 12.5 3.2 12.6C3.5 11.3 4.1 10 4.8 8.80002C4.6 8.70002 4.4 8.60002 4.3 8.40002Z" fill="black"/>
<path d="M2.4 12.5C1.1 12.5 0 13.6 0 14.9C0 16.2 1.1 17.3 2.4 17.3C3.7 17.3 4.8 16.2 4.8 14.9C4.9 13.6 3.8 12.5 2.4 12.5ZM2.4 16.7C1.4 16.7 0.6 15.9 0.6 14.9C0.6 13.9 1.4 13.1 2.4 13.1C3.4 13.1 4.2 13.9 4.2 14.9C4.2 15.9 3.4 16.7 2.4 16.7Z" fill="black"/>
<path d="M15.8004 0C14.5004 0 13.4004 1.1 13.4004 2.4C13.4004 3.7 14.5004 4.8 15.8004 4.8C17.1004 4.8 18.2004 3.7 18.2004 2.4C18.2004 1.1 17.1004 0 15.8004 0ZM15.8004 4.2C14.8004 4.2 14.0004 3.4 14.0004 2.4C14.0004 1.4 14.8004 0.6 15.8004 0.6C16.8004 0.6 17.6004 1.4 17.6004 2.4C17.6004 3.4 16.8004 4.2 15.8004 4.2Z" fill="black"/>
<path d="M5.99961 4.30005C4.69961 4.30005 3.59961 5.40005 3.59961 6.70005C3.59961 8.00005 4.69961 9.10005 5.99961 9.10005C7.29961 9.10005 8.39961 8.00005 8.39961 6.70005C8.49961 5.40005 7.39961 4.30005 5.99961 4.30005ZM5.99961 8.50005C4.99961 8.50005 4.19961 7.70005 4.19961 6.70005C4.19961 5.70005 5.09961 4.90005 5.99961 4.90005C6.99961 4.90005 7.79961 5.70005 7.79961 6.70005C7.79961 7.70005 6.99961 8.50005 5.99961 8.50005Z" fill="black"/>
<path d="M25.4 4.30005C24.1 4.30005 23 5.40005 23 6.70005C23 8.00005 24.1 9.10005 25.4 9.10005C26.7 9.10005 27.8 8.00005 27.8 6.70005C27.8 5.40005 26.7 4.30005 25.4 4.30005ZM25.4 8.50005C24.4 8.50005 23.6 7.70005 23.6 6.70005C23.6 5.70005 24.4 4.90005 25.4 4.90005C26.4 4.90005 27.2 5.70005 27.2 6.70005C27.2 7.70005 26.4 8.50005 25.4 8.50005Z" fill="black"/>
<path d="M29.1002 12.5C27.8002 12.5 26.7002 13.6 26.7002 14.9C26.7002 16.2 27.8002 17.3 29.1002 17.3C30.4002 17.3 31.5002 16.2 31.5002 14.9C31.6002 13.6 30.5002 12.5 29.1002 12.5ZM29.1002 16.7C28.1002 16.7 27.3002 15.9 27.3002 14.9C27.3002 13.9 28.1002 13.1 29.1002 13.1C30.1002 13.1 30.9002 13.9 30.9002 14.9C30.9002 15.9 30.1002 16.7 29.1002 16.7Z" fill="black"/>
<path d="M2.9 14.9C2.9 15.1 2.9 15.3 2.8 15.4C2.7 15.5 2.6 15.6 2.5 15.6C2.4 15.6 2.3 15.5 2.2 15.4C2.1 15.2 2 15.1 2 14.9C2 14.7 2 14.5 2.1 14.4C2.2 14.3 2.3 14.2 2.4 14.2C2.5 14.2 2.6 14.3 2.7 14.4C2.8 14.5 2.9 14.7 2.9 14.9ZM2.3 14.9C2.3 15 2.3 15.2 2.3 15.2C2.3 15.3 2.4 15.3 2.4 15.3C2.5 15.3 2.5 15.3 2.5 15.2C2.5 15.1 2.5 15 2.5 14.9C2.5 14.8 2.5 14.6 2.5 14.6C2.5 14.5 2.4 14.5 2.4 14.5C2.3 14.5 2.3 14.5 2.3 14.6C2.3 14.6 2.3 14.7 2.3 14.9Z" fill="black"/>
<path d="M5.99961 7.19998H5.09961V6.99998L5.39961 6.69998C5.49961 6.59998 5.49961 6.49998 5.59961 6.49998C5.59961 6.49998 5.59961 6.39998 5.69961 6.39998V6.29998V6.19998H5.59961H5.49961L5.39961 6.29998L5.09961 6.19998C5.19961 6.09998 5.19961 6.09998 5.19961 6.09998H5.29961C5.29961 6.09998 5.39961 6.09998 5.49961 6.09998C5.59961 6.09998 5.59961 6.09998 5.69961 6.09998C5.79961 6.09998 5.79961 6.19998 5.79961 6.19998C5.79961 6.19998 5.79961 6.29998 5.79961 6.39998C5.79961 6.49998 5.79961 6.49998 5.79961 6.59998C5.79961 6.59998 5.79961 6.69998 5.69961 6.69998C5.69961 6.79998 5.59961 6.79998 5.49961 6.89998V6.99998H5.99961V7.19998Z" fill="black"/>
<path d="M6.49961 6.5C6.59961 6.5 6.69961 6.5 6.79961 6.6C6.89961 6.7 6.89961 6.8 6.89961 6.9C6.89961 7 6.89961 7.1 6.79961 7.2C6.69961 7.2 6.59961 7.2 6.39961 7.2C6.29961 7.2 6.19961 7.2 6.09961 7.1V7C6.09961 7 6.19961 7 6.29961 7.1C6.39961 7.1 6.39961 7.1 6.49961 7.1C6.59961 7 6.69961 7 6.69961 6.8C6.69961 6.7 6.59961 6.6 6.49961 6.6H6.39961H6.29961H6.09961V6H6.79961V6.2H6.39961V6.4C6.49961 6.5 6.49961 6.5 6.49961 6.5Z" fill="black"/>
<path d="M15.3004 2.19995C15.4004 2.19995 15.5004 2.19995 15.6004 2.29995C15.7004 2.39995 15.7004 2.49995 15.7004 2.59995C15.7004 2.69995 15.7004 2.79995 15.6004 2.89995C15.5004 2.89995 15.4004 2.99995 15.2004 2.99995C15.1004 2.99995 15.0004 2.99995 14.9004 2.89995V2.69995C14.9004 2.69995 15.0004 2.69995 15.1004 2.79995C15.2004 2.79995 15.2004 2.79995 15.3004 2.79995C15.5004 2.79995 15.5004 2.69995 15.5004 2.59995C15.5004 2.49995 15.4004 2.39995 15.3004 2.39995H15.2004H15.1004L15.0004 2.29995V1.69995H15.7004V1.99995H15.3004V2.19995Z" fill="black"/>
<path d="M16.7004 2.39998C16.7004 2.59998 16.7004 2.79998 16.6004 2.89998C16.5004 2.89998 16.4004 2.99998 16.3004 2.99998C16.1004 2.99998 16.0004 2.89998 16.0004 2.79998C15.9004 2.69998 15.9004 2.49998 15.9004 2.29998C15.9004 2.09998 15.9004 1.89998 16.0004 1.79998C16.1004 1.69998 16.2004 1.59998 16.3004 1.59998C16.4004 1.59998 16.5004 1.69998 16.6004 1.79998C16.7004 1.99998 16.7004 2.19998 16.7004 2.39998ZM16.1004 2.39998C16.1004 2.49998 16.1004 2.69998 16.1004 2.69998C16.1004 2.79998 16.2004 2.79998 16.2004 2.79998C16.3004 2.79998 16.3004 2.79998 16.3004 2.69998C16.3004 2.59998 16.3004 2.49998 16.3004 2.39998C16.3004 2.29998 16.3004 2.09998 16.3004 2.09998C16.3004 1.99998 16.2004 1.99998 16.2004 1.99998C16.1004 1.99998 16.1004 1.99998 16.1004 2.09998C16.1004 2.09998 16.1004 2.19998 16.1004 2.39998Z" fill="black"/>
<path d="M24.6 7.2L25.1 6.2H24.5V6H25.4V6.2L24.9 7.2H24.6Z" fill="black"/>
<path d="M25.9 6.50002C26 6.50002 26.1 6.50002 26.2 6.60002C26.3 6.70002 26.3 6.80002 26.3 6.90002C26.3 7.00002 26.3 7.10002 26.2 7.20002C26.1 7.30002 26 7.30002 25.8 7.30002C25.7 7.30002 25.6 7.30002 25.5 7.20002V7.00002C25.5 7.00002 25.6 7.00002 25.7 7.10002C25.8 7.10002 25.8 7.10002 25.9 7.10002C25.9 7.00002 26 7.00002 26 6.80002C26 6.70002 25.9 6.60002 25.8 6.60002H25.7H25.6L25.5 6.50002V5.90002H26.2V6.10002H25.8V6.30002C25.8 6.50002 25.8 6.50002 25.9 6.50002Z" fill="black"/>
<path d="M28.3998 15.5H28.0998V14.8V14.7V14.6L27.9998 14.7L27.8998 14.8L27.7998 14.6L28.1998 14.3H28.3998V15.5Z" fill="black"/>
<path d="M29.5002 14.8C29.5002 15 29.5002 15.2 29.4002 15.3C29.3002 15.4 29.2002 15.5 29.1002 15.5C29.0002 15.5 28.9002 15.4 28.8002 15.3C28.7002 15.2 28.7002 15 28.7002 14.8C28.7002 14.6 28.7002 14.4 28.8002 14.3C28.9002 14.2 29.0002 14.1 29.1002 14.1C29.2002 14.1 29.3002 14.2 29.4002 14.3C29.5002 14.5 29.5002 14.6 29.5002 14.8ZM28.9002 14.8C28.9002 14.9 28.9002 15.1 28.9002 15.1C28.9002 15.2 29.0002 15.2 29.0002 15.2C29.1002 15.2 29.1002 15.2 29.1002 15.1C29.1002 15 29.1002 14.9 29.1002 14.8C29.1002 14.7 29.1002 14.5 29.1002 14.5C29.1002 14.4 29.0002 14.4 29.0002 14.4C28.9002 14.4 28.9002 14.4 28.9002 14.5C28.9002 14.6 28.9002 14.7 28.9002 14.8Z" fill="black"/>
<path d="M30.3996 14.8C30.3996 15 30.3996 15.2 30.2996 15.3C30.1996 15.4 30.0996 15.5 29.9996 15.5C29.8996 15.5 29.7996 15.4 29.6996 15.3C29.5996 15.2 29.5996 15 29.5996 14.8C29.5996 14.6 29.5996 14.4 29.6996 14.3C29.7996 14.2 29.8996 14.1 29.9996 14.1C30.0996 14.1 30.1996 14.2 30.2996 14.3C30.3996 14.5 30.3996 14.6 30.3996 14.8ZM29.8996 14.8C29.8996 14.9 29.8996 15.1 29.8996 15.1C29.8996 15.2 29.9996 15.2 29.9996 15.2C30.0996 15.2 30.0996 15.2 30.0996 15.1C30.0996 15 30.0996 14.9 30.0996 14.8C30.0996 14.7 30.0996 14.5 30.0996 14.5C30.0996 14.4 29.9996 14.4 29.9996 14.4C29.8996 14.4 29.8996 14.4 29.8996 14.5C29.8996 14.6 29.8996 14.7 29.8996 14.8Z" fill="black"/>
</svg>
