<svg width="26" height="25" viewBox="0 0 26 25" fill="none" xmlns="http://www.w3.org/2000/svg">
<g clip-path="url(#clip0_1274_594)">
<path d="M19.7173 17.4348C19.9716 17.6256 20.21 17.8004 20.4484 17.9752C19.7332 18.6586 19.0816 19.2944 18.3982 19.946C18.2393 19.787 18.0168 19.5804 17.7784 19.3579C12.9468 23.0134 6.22401 21.9803 2.66393 17.3872C-0.67364 13.0642 -0.27631 6.92945 3.58574 3.13097C7.51136 -0.71518 13.6302 -1.04894 17.8896 2.33631C22.3874 5.91228 23.4046 12.5239 19.7173 17.4348ZM1.99642 10.6961C1.93284 15.7184 6.0174 19.8983 11.0555 19.9778C16.1414 20.0413 20.3054 15.9727 20.3848 10.8869C20.4484 5.84871 16.3798 1.70059 11.2939 1.60523C6.25579 1.50987 2.07588 5.6262 1.99642 10.6961Z" fill="black"/>
<path d="M18.9229 20.4546C19.5904 19.803 20.2261 19.1831 20.8777 18.5156C20.989 18.6269 21.132 18.7381 21.2592 18.8653C22.4829 20.0891 23.7226 21.3287 24.9464 22.5525C25.5503 23.1564 25.5503 23.6491 24.9623 24.269C24.8192 24.412 24.6921 24.555 24.5332 24.6981C24.1199 25.0636 23.5796 25.1272 23.1981 24.7458C21.7518 23.3313 20.3532 21.885 18.9229 20.4546Z" fill="black"/>
<path d="M10.5149 9.59947C10.8486 9.59947 11.1983 9.58358 11.532 9.59947C12.0406 9.61536 12.1836 9.82197 12.1201 10.3623C11.9611 11.6338 11.8181 12.9053 11.6592 14.1767C11.6115 14.5105 11.6274 14.8124 11.9929 14.9396C12.3426 15.0667 12.6286 14.9237 12.8512 14.6535C12.9306 14.5581 12.9783 14.4151 13.0737 14.3833C13.2008 14.3356 13.3915 14.3198 13.5028 14.3833C13.5822 14.431 13.614 14.6217 13.5981 14.7489C13.2644 16.1793 11.1347 16.8944 10.0222 15.9567C9.52948 15.5435 9.32286 14.9873 9.38644 14.3515C9.4818 13.2708 9.57716 12.206 9.68841 11.1252C9.72019 10.8232 9.67251 10.6007 9.29108 10.6166C9.06857 10.6325 8.78249 10.6643 8.7666 10.3147C8.7666 9.94912 8.95732 9.67894 9.32286 9.63126C9.72019 9.58358 10.1175 9.61536 10.5149 9.59947C10.5149 9.61536 10.5149 9.61536 10.5149 9.59947Z" fill="black"/>
<path d="M11.5007 8.42336C10.6107 8.42336 9.89551 7.69228 9.89551 6.80226C9.89551 5.91224 10.6266 5.19705 11.5007 5.18115C12.3748 5.18115 13.1218 5.91224 13.1218 6.78637C13.1377 7.70817 12.4066 8.43926 11.5007 8.42336Z" fill="black"/>
</g>
<defs>
<clipPath id="clip0_1274_594">
<rect width="25" height="25" fill="white" transform="translate(0.407227)"/>
</clipPath>
</defs>
</svg>
