<svg width="22" height="23" viewBox="0 0 22 23" fill="none" xmlns="http://www.w3.org/2000/svg">
<g clip-path="url(#clip0_1274_583)">
<path d="M18.9578 6.33893C19.437 5.88442 19.9163 5.45833 20.3956 5.03223C20.4802 5.08904 20.5647 5.17426 20.6493 5.23107C21.2695 5.7708 21.6078 6.48096 21.6078 7.33316C21.6078 10.4011 21.6078 13.4406 21.6078 16.5085C21.6078 18.0424 20.3956 19.2639 18.8732 19.2639C13.6294 19.2639 8.38565 19.2639 3.14188 19.2639C1.6195 19.2639 0.407227 18.0424 0.407227 16.5085C0.407227 13.4406 0.407227 10.3727 0.407227 7.30475C0.407227 5.7708 1.64769 4.54932 3.19827 4.54932C6.86327 4.54932 10.5283 4.54932 14.1933 4.54932C14.2778 4.54932 14.3624 4.54932 14.4752 4.54932C14.4188 4.60613 14.4188 4.63454 14.3906 4.66294C13.9395 5.17426 13.4603 5.68558 13.0092 6.1969C12.9246 6.28211 12.84 6.31052 12.7273 6.31052C9.56973 6.31052 6.41219 6.31052 3.25465 6.31052C2.74719 6.31052 2.38069 6.53777 2.23973 6.96387C2.18334 7.1059 2.15515 7.24794 2.15515 7.38997C2.15515 10.4011 2.15515 13.4122 2.15515 16.4232C2.15515 17.0482 2.57803 17.4743 3.19827 17.4743C8.38565 17.4743 13.6012 17.4743 18.7886 17.4743C19.4088 17.4743 19.8317 17.0482 19.8317 16.4232C19.8317 13.4122 19.8317 10.4011 19.8317 7.36156C19.8317 6.82184 19.5216 6.45255 19.0142 6.33893C19.0142 6.36733 18.986 6.36733 18.9578 6.33893Z" fill="#545454"/>
<path d="M11.0071 20.7979C14.2492 20.7979 17.4913 20.7979 20.7052 20.7979C21.1845 20.7979 21.5792 21.1671 21.6074 21.65C21.6356 22.133 21.2973 22.5307 20.818 22.5875C20.7616 22.5875 20.7052 22.5875 20.6207 22.5875C14.221 22.5875 7.79316 22.5875 1.39351 22.5875C0.886045 22.5875 0.547738 22.3602 0.434968 21.9341C0.294007 21.366 0.688699 20.8547 1.25255 20.7979C1.30893 20.7979 1.36531 20.7979 1.44989 20.7979C4.63562 20.7979 7.82135 20.7979 11.0071 20.7979Z" fill="#545454"/>
<path d="M17.6044 2.70264C18.1965 3.29917 18.7885 3.89571 19.4087 4.52065C18.9577 4.91835 18.5066 5.34444 18.0273 5.77054C16.5613 7.10565 15.0953 8.44076 13.6293 9.77586C13.3474 10.0315 13.0373 10.0315 12.7554 9.80427C12.6144 9.69064 12.4452 9.52021 12.3325 9.37817C12.1069 9.09411 12.1351 8.78164 12.3607 8.49757C14.0804 6.59433 15.8001 4.69109 17.4917 2.78786C17.5481 2.75945 17.5762 2.73104 17.6044 2.70264Z" fill="#545454"/>
<path d="M8.24414 13.8385C8.41329 13.0431 8.58245 12.2477 8.7798 11.4239C8.86437 11.0546 9.00533 10.6854 9.23087 10.3729C9.71014 9.71954 10.3586 9.46388 11.1479 9.60592C11.9091 9.74795 12.4166 10.2025 12.6421 10.941C12.7831 11.3955 12.6421 11.8216 12.4166 12.1909C12.0219 12.8443 11.4299 13.2135 10.7251 13.4408C9.93568 13.6965 9.1181 13.8101 8.30053 13.8101C8.27233 13.8385 8.24414 13.8385 8.24414 13.8385Z" fill="#545454"/>
<path d="M19.6899 4.237C19.0697 3.61205 18.4777 3.01551 17.8574 2.39057C17.9702 2.27694 18.083 2.13491 18.1957 1.99288C18.5904 1.56678 18.9569 1.14068 19.3516 0.714585C19.4644 0.572552 19.6335 0.515739 19.7745 0.572552C20 0.657772 20.2256 0.771398 20.4229 0.913431C20.7048 1.14068 20.9304 1.42475 21.1841 1.68041C21.3533 1.85085 21.466 2.0781 21.466 2.33376C21.466 2.44738 21.4378 2.56101 21.3815 2.64623C20.8458 3.21436 20.2538 3.72568 19.6899 4.237Z" fill="#545454"/>
</g>
<defs>
<clipPath id="clip0_1274_583">
<rect width="21.2288" height="22.0151" fill="white" transform="translate(0.407227 0.572266)"/>
</clipPath>
</defs>
</svg>
