<svg width="27" height="25" viewBox="0 0 27 25" fill="none" xmlns="http://www.w3.org/2000/svg">
<g clip-path="url(#clip0_1274_577)">
<path d="M13.3793 25C11.4208 25 9.46227 25.0301 7.50375 25C4.01249 24.9699 1.25921 22.5301 0.606373 18.8855C0.52122 18.3434 0.436067 17.8012 0.436067 17.259C0.436067 13.8855 0.379299 10.512 0.492836 7.13855C0.663141 3.04217 3.72864 0.0301205 7.58891 0C11.4776 0 15.3662 0 19.2548 0C22.9448 0 25.8968 2.8012 26.2658 6.71687C26.4361 8.55422 26.4077 10.3916 26.4077 12.259C26.4077 14.247 26.4645 16.2349 26.2941 18.1928C25.9535 22.1988 23.0016 24.9699 19.2548 25C17.2963 25.0301 15.3378 25 13.3793 25ZM13.4361 1.92771C11.3356 1.92771 9.23519 1.92771 7.10637 1.95783C6.59546 1.95783 6.02777 2.07831 5.54524 2.31928C3.21773 3.37349 2.25266 5.42169 2.22428 7.98193C2.16751 11.0241 2.16751 14.0361 2.22428 17.0783C2.28105 20.2711 4.18279 23.2831 8.12821 23.1627C11.7614 23.0422 15.3946 23.1325 19.0278 23.1325C19.5955 23.1325 20.1631 23.1024 20.6741 22.9518C22.9448 22.3494 24.5343 20.1506 24.5911 17.4096C24.6479 14.1566 24.7046 10.8735 24.5911 7.62048C24.4492 4.24699 22.1784 1.74699 18.971 1.89759C17.126 1.98795 15.281 1.92771 13.4361 1.92771Z" fill="black"/>
<path d="M13.4363 14.6988C12.528 14.6988 11.7332 14.3374 11.0236 13.735C9.34892 12.2892 7.64586 10.8434 5.97119 9.3976C5.37512 8.88555 5.26158 8.37351 5.63058 7.89158C5.97119 7.43977 6.53887 7.43977 7.10656 7.9217C8.72446 9.30724 10.314 10.6627 11.9319 12.0482C13.1524 13.1024 13.8336 13.1024 15.0825 12.0482C16.6721 10.6928 18.2332 9.30724 19.8227 7.95182C20.3904 7.46989 20.9581 7.43977 21.2987 7.9217C21.6393 8.37351 21.5258 8.94579 20.9581 9.45784C19.255 10.9337 17.552 12.3795 15.8489 13.8554C15.1109 14.3675 14.3162 14.6988 13.4363 14.6988Z" fill="black"/>
</g>
<defs>
<clipPath id="clip0_1274_577">
<rect width="26" height="25" fill="white" transform="translate(0.407227)"/>
</clipPath>
</defs>
</svg>
